<svg width="26" height="26" viewBox="0 0 26 26" fill="none" xmlns="http://www.w3.org/2000/svg">
<path fill-rule="evenodd" clip-rule="evenodd" d="M0.194336 4.61105C0.194336 2.25361 2.10542 0.342529 4.46286 0.342529H21.5369C23.8944 0.342529 25.8054 2.25362 25.8054 4.61105V21.6851C25.8054 24.0426 23.8944 25.9536 21.5369 25.9536H4.46285C2.10542 25.9536 0.194336 24.0426 0.194336 21.6851V4.61105ZM19.7728 21.8128C19.0659 21.8128 18.5419 21.5932 18.1248 21.2376C17.6379 20.8227 16.957 20.6079 16.4039 20.9292V20.9292C15.8644 21.2427 15.6509 21.9378 16.0629 22.4063C16.8708 23.3248 18.118 23.9486 19.8285 23.9486C22.1144 23.9486 23.8165 22.7616 23.8165 20.5948C23.8165 18.5849 22.662 17.691 20.6172 16.8141L20.0155 16.5564C18.9829 16.1092 18.5358 15.8169 18.5358 15.0949C18.5358 14.5107 18.9825 14.0636 19.6875 14.0636C19.9825 14.0636 20.2327 14.1167 20.4547 14.2352C21.018 14.5358 21.6904 14.8034 22.2276 14.4584V14.4584C22.7227 14.1406 22.8988 13.4728 22.496 13.0439C21.7744 12.2755 20.8564 11.9647 19.6875 11.9647C17.5381 11.9647 16.1629 13.3387 16.1629 15.1437C16.1629 17.1032 17.3166 18.03 19.0533 18.7699L19.6549 19.0281C20.7525 19.5082 21.4071 19.8005 21.4071 20.6257C21.4071 21.3144 20.77 21.8128 19.7728 21.8128ZM10.4459 21.7977C10.0992 21.7977 9.83738 21.698 9.62237 21.5328C9.09229 21.1254 8.42375 20.8464 7.85184 21.1926V21.1926C7.33261 21.507 7.11859 22.1807 7.51054 22.6442C8.15486 23.406 9.13275 23.9442 10.5483 23.9442C12.681 23.9442 14.142 22.81 14.142 20.318V13.3054C14.142 12.6408 13.6033 12.1021 12.9387 12.1021V12.1021C12.2741 12.1021 11.7354 12.6408 11.7354 13.3054V20.2854C11.7354 21.4884 11.2366 21.7977 10.4459 21.7977Z" fill="#F8FAFC"/>
</svg>
