<svg width="692" height="364" viewBox="0 0 692 364" fill="none" xmlns="http://www.w3.org/2000/svg">
<path fill-rule="evenodd" clip-rule="evenodd" d="M345.6 363.598C154.734 363.598 0 282.203 0 181.799C0 81.3964 154.734 0.000167847 345.6 0.000167847C536.466 0.000167847 691.201 81.3964 691.201 181.799C691.201 282.203 536.466 363.598 345.6 363.598ZM221.232 194.402C214.108 199.885 202.849 202.666 187.768 202.666H168.177L181.538 133.916H205.639C219.539 133.916 228.747 136.308 233.006 141.026C237.171 145.645 238.077 154.203 235.698 166.461C233.147 179.575 228.279 188.976 221.232 194.402ZM106.047 285.988C106.758 286.853 107.821 287.353 108.939 287.353H148.628C150.423 287.353 151.966 286.081 152.308 284.318L161.133 238.916H192.036C207.369 238.916 220.217 237.263 230.221 234.005C240.386 230.702 249.746 225.09 258.016 217.35C264.924 211 270.606 203.881 274.904 196.187C279.198 188.502 282.286 179.918 284.081 170.676C288.492 147.99 285.008 129.938 273.727 117.025C262.506 104.178 244.653 97.6658 220.668 97.6658H144.351C142.556 97.6658 141.012 98.9383 140.669 100.7L105.259 282.888C105.046 283.987 105.334 285.125 106.047 285.988ZM375.079 238.916C373.959 238.916 372.897 238.416 372.186 237.551C371.472 236.687 371.184 235.551 371.397 234.451L387.061 153.84C388.551 146.173 388.184 140.671 386.027 138.346C384.707 136.925 380.742 134.541 369.019 134.541H340.641L320.947 235.881C320.605 237.643 319.061 238.916 317.266 238.916H277.891C276.771 238.916 275.71 238.416 274.997 237.551C274.285 236.687 273.996 235.55 274.21 234.451L309.62 52.262C309.962 50.5008 311.506 49.2283 313.301 49.2283H352.676C353.796 49.2283 354.857 49.7283 355.57 50.592C356.282 51.457 356.571 52.5933 356.357 53.6933L347.812 97.6658H378.34C401.596 97.6658 417.366 101.766 426.551 110.201C435.914 118.806 438.835 132.565 435.235 151.1L418.76 235.881C418.417 237.643 416.875 238.916 415.079 238.916H375.079ZM531.001 194.402C523.877 199.885 512.619 202.666 497.537 202.666H477.946L491.307 133.916H515.409C529.309 133.916 538.516 136.308 542.775 141.026C546.941 145.645 547.847 154.203 545.469 166.461C542.916 179.576 538.049 188.977 531.001 194.402ZM415.817 285.988C416.529 286.853 417.591 287.353 418.71 287.353H458.397C460.194 287.353 461.736 286.081 462.08 284.318L470.901 238.916H501.805C517.139 238.916 529.986 237.263 539.99 234.005C550.155 230.702 559.515 225.09 567.785 217.35C574.694 211 580.375 203.881 584.674 196.187C588.967 188.502 592.054 179.918 593.851 170.676C598.261 147.988 594.779 129.937 583.497 117.025C572.275 104.178 554.424 97.6658 530.437 97.6658H454.121C452.325 97.6658 450.782 98.9383 450.439 100.7L415.029 282.888C414.815 283.987 415.105 285.125 415.817 285.988Z" fill="#F8FAFC"/>
</svg>
