<svg width="43" height="26" viewBox="0 0 43 26" fill="none" xmlns="http://www.w3.org/2000/svg">
<path fill-rule="evenodd" clip-rule="evenodd" d="M21.4997 0.342529C15.7735 0.342529 12.1955 3.1884 10.7634 8.88013C12.9108 6.03426 15.4159 4.96727 18.2786 5.67832C19.9119 6.08391 21.0798 7.26197 22.3715 8.56626C24.4769 10.6901 26.9138 13.1481 32.2353 13.1481C37.9607 13.1481 41.5394 10.3022 42.9708 4.61133C40.8242 7.45719 38.3191 8.52418 35.4564 7.8123C33.8223 7.40671 32.6543 6.22864 31.3626 4.9252C29.2573 2.79963 26.8212 0.342529 21.4997 0.342529ZM10.7634 13.1481C5.03797 13.1481 1.45918 15.994 0.027832 21.6857C2.17527 18.8398 4.68034 17.7728 7.5422 18.4839C9.17634 18.8895 10.3443 20.0675 11.636 21.3718C13.7413 23.4957 16.1774 25.9536 21.4997 25.9536C27.2251 25.9536 30.8039 23.1086 32.2353 17.4169C30.0878 20.2627 27.5827 21.3297 24.7201 20.6187C23.0868 20.2123 21.9188 19.0342 20.6271 17.7308C18.5218 15.6069 16.0848 13.1481 10.7634 13.1481Z" fill="#F8FAFC"/>
</svg>
