<svg width="27" height="27" viewBox="0 0 27 27" fill="none" xmlns="http://www.w3.org/2000/svg">
<path fill-rule="evenodd" clip-rule="evenodd" d="M26.4898 13.1482C26.4898 20.3328 20.6656 26.157 13.481 26.157C6.29641 26.157 0.472168 20.3328 0.472168 13.1482C0.472168 5.96365 6.29641 0.139404 13.481 0.139404C20.6656 0.139404 26.4898 5.96365 26.4898 13.1482ZM16.1236 15.3191L17.3026 11.6034H17.2944C17.8148 10.1968 18.8392 8.87156 20.7905 8.87156L18.0262 15.5874C17.7861 16.3483 17.31 17.0131 16.6667 17.4852C16.0235 17.9574 15.2467 18.2125 14.4487 18.2135C14.4487 18.2135 13.6357 12.4409 13.6357 12.3108L12.4161 15.4817C11.8714 16.8882 10.8144 18.2135 8.86308 18.2135L7.33454 8.87969C8.07855 8.89834 8.78989 9.18919 9.33382 9.69716C9.87775 10.2051 10.2165 10.8949 10.2859 11.6359C10.2859 11.6359 10.4892 15.0589 10.4892 15.3272L11.9283 11.6034C12.4486 10.1968 13.4406 8.87156 15.3106 8.87156C15.3106 8.87156 16.1236 15.0345 16.1236 15.3191Z" fill="#F8FAFC"/>
</svg>
