<svg width="27" height="27" viewBox="0 0 27 27" fill="none" xmlns="http://www.w3.org/2000/svg">
<path d="M13.5186 0.919934C15.9642 0.919934 18.3448 1.64843 20.3612 3.01436C22.3256 4.34126 23.8736 6.21453 24.7972 8.40002C26.4103 12.2116 25.981 16.5695 23.6655 19.9909C22.3386 21.9552 20.4653 23.5032 18.2798 24.4269C14.4682 26.04 10.1103 25.6107 6.68896 23.2951C4.72462 21.9682 3.17657 20.0949 2.25294 17.9094C0.639854 14.0979 1.06915 9.7399 3.38471 6.3186C4.71161 4.35427 6.58489 2.80622 8.77037 1.88259C10.2664 1.24516 11.8925 0.919934 13.5186 0.919934ZM13.5186 0.139404C6.33772 0.139404 0.509766 5.96736 0.509766 13.1482C0.509766 20.3291 6.33772 26.157 13.5186 26.157C20.6994 26.157 26.5274 20.3291 26.5274 13.1482C26.5274 5.96736 20.6994 0.139404 13.5186 0.139404Z" fill="#F8FAFC"/>
<path d="M2.68262 13.148C2.68262 17.2979 5.05022 21.0964 8.79677 22.9047L3.61925 8.73808C2.99483 10.13 2.68262 11.626 2.68262 13.148ZM20.8429 12.6017C20.8429 11.2618 20.3616 10.3381 19.9453 9.60967C19.529 8.88118 18.8786 7.95755 18.8786 7.07295C18.8786 6.18835 19.6331 5.14764 20.6998 5.14764H20.8429C16.4329 1.1019 9.5773 1.4011 5.53155 5.8241C5.14129 6.25339 4.77704 6.7087 4.46483 7.19003H5.1673C6.29907 7.19003 8.05526 7.04693 8.05526 7.04693C8.64066 7.00791 8.7057 7.86649 8.12031 7.94454C8.12031 7.94454 7.53491 8.00959 6.88447 8.04861L10.8261 19.7955L13.1937 12.6797L11.5026 8.04861C10.9172 8.00959 10.3708 7.94454 10.3708 7.94454C9.78544 7.90552 9.85048 7.02092 10.4359 7.04693C10.4359 7.04693 12.2311 7.19003 13.2848 7.19003C14.3385 7.19003 16.1728 7.04693 16.1728 7.04693C16.7582 7.00791 16.8232 7.86649 16.2378 7.94454C16.2378 7.94454 15.6524 8.00959 15.002 8.04861L18.9176 19.7045L20.0364 16.1661C20.5307 14.618 20.8299 13.5253 20.8299 12.5887L20.8429 12.6017ZM13.7011 14.0847L10.4489 23.5421C12.6344 24.1795 14.9629 24.1275 17.1094 23.373L17.0313 23.2299L13.7011 14.0847ZM23.0284 7.94454C23.0805 8.30879 23.1065 8.68605 23.1065 9.0633C23.1065 10.169 22.8983 11.4049 22.2869 12.9399L18.9697 22.5144C24.0431 19.5614 25.8513 13.096 23.0284 7.94454Z" fill="#F8FAFC"/>
</svg>
