<svg width="32" height="28" viewBox="0 0 32 28" fill="none" xmlns="http://www.w3.org/2000/svg">
<path d="M15.6998 16.8661C17.2151 16.8661 18.4435 15.6377 18.4435 14.1224C18.4435 12.6071 17.2151 11.3787 15.6998 11.3787C14.1845 11.3787 12.9561 12.6071 12.9561 14.1224C12.9561 15.6377 14.1845 16.8661 15.6998 16.8661Z" fill="#F8FAFC"/>
<path d="M15.6991 8.54419C19.3822 8.54419 22.8041 9.0728 25.3837 9.96047C28.4919 11.0304 30.4032 12.6525 30.4032 14.1214C30.4032 15.6519 28.3777 17.3755 25.0401 18.4808C22.5167 19.3168 19.1954 19.7538 15.6991 19.7538C12.114 19.7538 8.72021 19.344 6.16782 18.4717C2.93903 17.3683 0.994141 15.6229 0.994141 14.1214C0.994141 12.6643 2.81935 11.0549 5.88402 9.98676C8.47358 9.08459 11.9798 8.54419 15.6991 8.54419Z" stroke="#F8FAFC" stroke-width="1.40875" stroke-miterlimit="10"/>
<path d="M10.8446 11.3496C12.6843 8.1589 14.8522 5.45872 16.9104 3.66797C19.3903 1.51 21.7504 0.66495 23.0226 1.39848C24.3482 2.16283 24.8296 4.77869 24.1197 8.22328C23.5829 10.8273 22.3026 13.9219 20.5554 16.9513C18.7647 20.0567 16.7137 22.7923 14.6836 24.5676C12.1149 26.8135 9.63047 27.6259 8.33025 26.8761C7.06811 26.148 6.58574 23.7634 7.19052 20.5745C7.7019 17.8779 8.9858 14.5711 10.8446 11.3496Z" stroke="#F8FAFC" stroke-width="1.40875" stroke-miterlimit="10"/>
<path d="M10.8484 16.9577C9.00323 13.7697 7.74653 10.5436 7.22245 7.8661C6.59138 4.64003 7.03748 2.17288 8.30869 1.43754C9.63339 0.670461 12.1395 1.55994 14.769 3.89472C16.7574 5.66008 18.7984 8.31493 20.5502 11.3415C22.3464 14.4443 23.6928 17.5869 24.216 20.2318C24.8788 23.5794 24.342 26.1372 23.0427 26.8889C21.7815 27.6188 19.4748 26.8462 17.014 24.7291C14.9358 22.9401 12.7117 20.1765 10.8484 16.9577Z" stroke="#F8FAFC" stroke-width="1.40875" stroke-miterlimit="10"/>
</svg>
