<svg width="30" height="27" viewBox="0 0 30 27" fill="none" xmlns="http://www.w3.org/2000/svg">
<path d="M1.1432 19.3756L10.7772 2.88232C12.001 3.60277 18.1718 7.0179 19.1684 7.6673L9.53442 24.1616C8.48076 25.5534 -0.191636 21.4879 1.1432 19.3746V19.3756Z" fill="#E2E8F0"/>
<path d="M28.8232 19.3751L19.1892 2.88286C17.8424 0.641466 14.9416 -0.173041 12.5591 1.15078C10.1766 2.47461 9.45113 5.32638 10.798 7.66784L20.432 24.1621C21.7788 26.4025 24.6796 27.217 27.0621 25.8932C29.3405 24.5694 30.17 21.6165 28.8232 19.3771V19.3751Z" fill="#F8FAFC"/>
<path d="M5.3116 26.5307C7.98245 26.5307 10.1476 24.4194 10.1476 21.8148C10.1476 19.2103 7.98245 17.0989 5.3116 17.0989C2.64074 17.0989 0.475586 19.2103 0.475586 21.8148C0.475586 24.4194 2.64074 26.5307 5.3116 26.5307Z" fill="#F8FAFC"/>
</svg>
