<svg width="23" height="32" viewBox="0 0 23 32" fill="none" xmlns="http://www.w3.org/2000/svg">
<path d="M19.7345 10.9976C20.6951 10.2772 21.4046 9.27279 21.7626 8.12672C22.1206 6.98064 22.109 5.75098 21.7293 4.6119C21.3496 3.47283 20.6211 2.48209 19.6471 1.78004C18.673 1.07798 17.5028 0.700195 16.3021 0.700195H6.00469C4.804 0.700195 3.63374 1.07798 2.65969 1.78004C1.68564 2.48209 0.957176 3.47283 0.577485 4.6119C0.197793 5.75098 0.186124 6.98064 0.544131 8.12672C0.902138 9.27279 1.61167 10.2772 2.57222 10.9976C1.84494 11.5426 1.25799 12.2531 0.859973 13.0702C0.461961 13.8872 0.264346 14.7874 0.283497 15.696C0.302649 16.6047 0.538015 17.4957 0.970102 18.2952C1.40219 19.0948 2.01856 19.7799 2.76816 20.2938C1.91553 20.9421 1.24247 21.7972 0.812704 22.7783C0.382939 23.7594 0.210696 24.8339 0.312283 25.9001C0.41387 26.9664 0.785926 27.9891 1.39322 28.8713C2.00052 29.7536 2.82295 30.4662 3.78265 30.9418C4.74235 31.4174 5.80756 31.6401 6.87741 31.589C7.94726 31.5378 8.98634 31.2144 9.89627 30.6494C10.8062 30.0844 11.5569 29.2965 12.0772 28.3603C12.5975 27.4241 12.8703 26.3706 12.8696 25.2995V20.1508C13.4706 20.6016 14.1545 20.9296 14.8823 21.116C15.6101 21.3024 16.3674 21.3437 17.1111 21.2375C17.8548 21.1312 18.5703 20.8796 19.2168 20.4968C19.8632 20.114 20.4279 19.6077 20.8787 19.0067C21.3295 18.4057 21.6574 17.7218 21.8439 16.994C22.0303 16.2662 22.0716 15.5089 21.9654 14.7652C21.8591 14.0215 21.6074 13.306 21.2247 12.6595C20.8419 12.0131 20.3356 11.4483 19.7345 10.9976ZM12.8696 2.9885H16.3021C17.2124 2.9885 18.0855 3.35014 18.7292 3.99385C19.3729 4.63756 19.7345 5.51062 19.7345 6.42097C19.7345 7.33132 19.3729 8.20438 18.7292 8.84809C18.0855 9.4918 17.2124 9.85343 16.3021 9.85343H12.8696V2.9885ZM16.3021 19.0067C15.6232 19.0067 14.9596 18.8054 14.3951 18.4282C13.8306 18.051 13.3907 17.515 13.1309 16.8878C12.8711 16.2606 12.8031 15.5704 12.9356 14.9046C13.068 14.2387 13.3949 13.6271 13.875 13.1471C14.355 12.6671 14.9666 12.3401 15.6324 12.2077C16.2983 12.0753 16.9884 12.1432 17.6156 12.403C18.2428 12.6628 18.7789 13.1028 19.1561 13.6672C19.5332 14.2317 19.7345 14.8953 19.7345 15.5742C19.7345 16.4846 19.3729 17.3576 18.7292 18.0013C18.0855 18.645 17.2124 19.0067 16.3021 19.0067Z" fill="#F8FAFC"/>
</svg>
