<svg width="21" height="26" viewBox="0 0 21 26" fill="none" xmlns="http://www.w3.org/2000/svg">
<path d="M7.19577 22.1632C6.04327 21.0875 5.68472 18.885 6.17133 17.2715C7.01649 18.2959 8.16899 18.6033 9.37272 18.8082C11.2167 19.0643 13.0351 18.9618 14.7511 18.1167L15.3657 17.7581C15.5194 18.2191 15.5706 18.7057 15.4938 19.1923C15.3657 20.3448 14.7767 21.2412 13.8547 21.9327C13.4961 22.2144 13.0863 22.4449 12.7022 22.701C11.5241 23.5206 11.2167 24.4426 11.6777 25.8V25.9537C11.118 25.705 10.6453 25.2947 10.3203 24.7755C9.98233 24.2389 9.80462 23.6169 9.80811 22.9828C9.80811 22.6754 9.80811 22.3425 9.75688 22.0352C9.65444 21.2668 9.29588 20.9339 8.60438 20.9083C8.28275 20.89 7.96538 20.9889 7.71109 21.1867C7.4568 21.3844 7.28282 21.6677 7.22138 21.9839L7.19577 22.1632Z" fill="#F8FAFC"/>
<path d="M0.587891 16.9898C0.587891 16.9898 4.01978 15.325 7.45167 15.325L10.0384 7.30875C10.1408 6.92459 10.4226 6.66848 10.7299 6.66848C11.0628 6.66848 11.3446 6.92459 11.447 7.30875L14.0081 15.325C18.1059 15.325 20.8975 16.9898 20.8975 16.9898L15.0582 1.11086C14.9045 0.649863 14.6228 0.342529 14.2386 0.342529H7.24678C6.86262 0.342529 6.6065 0.649863 6.42723 1.11086L0.587891 16.9898Z" fill="#F8FAFC"/>
</svg>
