<svg width="35" height="35" viewBox="0 0 35 35" fill="none" xmlns="http://www.w3.org/2000/svg">
<path fill-rule="evenodd" clip-rule="evenodd" d="M9.55712 0C4.27887 0 0 4.27887 0 9.55712V25.196C0 30.4743 4.27887 34.7532 9.55712 34.7532H25.196C30.4743 34.7532 34.7532 30.4743 34.7532 25.196V9.55712C34.7532 4.27887 30.4743 0 25.196 0H9.55712ZM13.0145 9.37705C13.5078 9.62813 14.0113 10.0156 14.2746 10.575C14.7491 11.5835 16.944 16.3836 17.9822 18.6576C20.4292 23.0326 23.6919 16.8038 20.1326 13.9119H19.0203C18.1193 13.9119 17.389 13.1815 17.389 12.2805V10.7975C17.389 9.8965 18.1193 9.16612 19.0203 9.16612H27.3254C28.2264 9.16612 28.9567 9.8965 28.9567 10.7975V12.2805C28.9567 13.1815 28.2264 13.9119 27.3254 13.9119H26.2635L18.9366 28.2598C18.3336 29.4406 16.6486 29.447 16.0366 28.2709L8.56482 13.9119H7.45253C6.55156 13.9119 5.82118 13.1815 5.82118 12.2805V10.7975C5.82118 9.96283 6.44798 9.27459 7.25655 9.17777L7.26431 9.16612H11.9869C12.3414 9.16612 12.6985 9.21626 13.0145 9.37705Z" fill="#0C0A09"/>
</svg>
