<svg width="149" height="30" viewBox="0 0 149 30" fill="none" xmlns="http://www.w3.org/2000/svg">
<path fill-rule="evenodd" clip-rule="evenodd" d="M8.10459 0.123291C3.62855 0.123291 0 3.75184 0 8.22789V21.49C0 25.966 3.62855 29.5945 8.10459 29.5945H21.3667C25.8427 29.5945 29.4713 25.966 29.4713 21.49V8.22789C29.4713 3.75184 25.8427 0.123291 21.3667 0.123291H8.10459ZM11.0365 8.07525C11.4548 8.28817 11.8819 8.61678 12.1051 9.09114C12.5075 9.94634 14.3689 14.0169 15.2492 15.9453C17.3243 19.6554 20.0912 14.3733 17.0728 11.9209H16.1296C15.3655 11.9209 14.7462 11.3015 14.7462 10.5374V9.27979C14.7462 8.51575 15.3655 7.89638 16.1296 7.89638H23.1724C23.9365 7.89638 24.5558 8.51575 24.5558 9.27979V10.5374C24.5558 11.3015 23.9365 11.9209 23.1724 11.9209H22.2719L16.0586 24.0881C15.5472 25.0894 14.1183 25.0949 13.5993 24.0975L7.26315 11.9209H6.31991C5.55587 11.9209 4.9365 11.3015 4.9365 10.5374V9.27979C4.9365 8.572 5.46804 7.98836 6.15371 7.90626L6.1603 7.89638H10.1652C10.4658 7.89638 10.7686 7.93889 11.0365 8.07525Z" fill="#FAFAF9"/>
<path d="M41.3592 20.3589L37.8232 9.79889H40.0312L42.7032 18.6309H42.8952L45.5832 9.79889H47.7592L44.2072 20.3589H41.3592ZM49.2478 20.3589V11.9909H51.2638V20.3589H49.2478ZM50.2558 10.6789C49.8505 10.6789 49.5358 10.5936 49.3118 10.4229C49.0985 10.2416 48.9918 9.98555 48.9918 9.65489C48.9918 9.32422 49.0985 9.07355 49.3118 8.90289C49.5358 8.72155 49.8505 8.63089 50.2558 8.63089C50.6825 8.63089 51.0025 8.71622 51.2158 8.88689C51.4291 9.05755 51.5358 9.31355 51.5358 9.65489C51.5358 9.98555 51.4238 10.2416 51.1998 10.4229C50.9865 10.5936 50.6718 10.6789 50.2558 10.6789ZM57.2891 20.5669C56.5637 20.5669 55.9344 20.4602 55.4011 20.2469C54.8784 20.0336 54.4411 19.7349 54.0891 19.3509C53.7477 18.9562 53.4917 18.4976 53.3211 17.9749C53.1504 17.4522 53.0651 16.8869 53.0651 16.2789C53.0651 15.6282 53.1504 15.0309 53.3211 14.4869C53.5024 13.9429 53.7691 13.4682 54.1211 13.0629C54.4731 12.6576 54.9051 12.3429 55.4171 12.1189C55.9397 11.8949 56.5371 11.7829 57.2091 11.7829C57.8811 11.7829 58.4624 11.8949 58.9531 12.1189C59.4544 12.3429 59.8597 12.6576 60.1691 13.0629C60.4784 13.4576 60.6864 13.9216 60.7931 14.4549L58.9051 15.0469C58.8837 14.7269 58.7984 14.4442 58.6491 14.1989C58.4997 13.9429 58.2971 13.7456 58.0411 13.6069C57.7851 13.4682 57.4811 13.3989 57.1291 13.3989C56.7877 13.3989 56.4891 13.4682 56.2331 13.6069C55.9877 13.7349 55.7797 13.9216 55.6091 14.1669C55.4491 14.4122 55.3211 14.7109 55.2251 15.0629C55.1397 15.4042 55.0971 15.7882 55.0971 16.2149C55.0971 16.8016 55.1771 17.3029 55.3371 17.7189C55.4971 18.1349 55.7424 18.4602 56.0731 18.6949C56.4037 18.9189 56.8144 19.0309 57.3051 19.0309C57.7424 19.0309 58.0944 18.9509 58.3611 18.7909C58.6384 18.6202 58.8464 18.4016 58.9851 18.1349C59.1344 17.8682 59.2251 17.5749 59.2571 17.2549L61.0491 17.6549C60.9851 18.0922 60.8624 18.4869 60.6811 18.8389C60.4997 19.1909 60.2491 19.5002 59.9291 19.7669C59.6197 20.0229 59.2464 20.2202 58.8091 20.3589C58.3717 20.4976 57.8651 20.5669 57.2891 20.5669ZM65.4102 20.5509C64.5249 20.5509 63.8742 20.3162 63.4582 19.8469C63.0422 19.3669 62.8342 18.6256 62.8342 17.6229V13.6069H61.6022L61.6342 12.0069H62.4502C62.7595 12.0069 62.9889 11.9589 63.1382 11.8629C63.2875 11.7669 63.3782 11.5962 63.4102 11.3509L63.6022 10.1349H64.7702V11.9909H66.9782V13.6709H64.7702V17.5429C64.7702 17.9376 64.8609 18.2256 65.0422 18.4069C65.2342 18.5882 65.5169 18.6789 65.8902 18.6789C66.0929 18.6789 66.2902 18.6576 66.4822 18.6149C66.6849 18.5616 66.8715 18.4762 67.0422 18.3589V20.2789C66.7115 20.3856 66.4075 20.4549 66.1302 20.4869C65.8635 20.5296 65.6235 20.5509 65.4102 20.5509ZM72.3348 20.5669C71.5135 20.5669 70.7881 20.4016 70.1588 20.0709C69.5295 19.7296 69.0335 19.2336 68.6708 18.5829C68.3188 17.9216 68.1428 17.1109 68.1428 16.1509C68.1428 15.1696 68.3241 14.3589 68.6868 13.7189C69.0601 13.0682 69.5615 12.5829 70.1908 12.2629C70.8201 11.9429 71.5295 11.7829 72.3188 11.7829C73.1401 11.7829 73.8655 11.9482 74.4948 12.2789C75.1241 12.6096 75.6201 13.1056 75.9828 13.7669C76.3455 14.4176 76.5268 15.2282 76.5268 16.1989C76.5268 17.1802 76.3455 17.9962 75.9828 18.6469C75.6201 19.2976 75.1188 19.7829 74.4788 20.1029C73.8495 20.4122 73.1348 20.5669 72.3348 20.5669ZM72.4148 19.0309C72.8628 19.0309 73.2415 18.9296 73.5508 18.7269C73.8602 18.5136 74.0948 18.1989 74.2548 17.7829C74.4255 17.3669 74.5108 16.8709 74.5108 16.2949C74.5108 15.6869 74.4201 15.1696 74.2388 14.7429C74.0682 14.3056 73.8175 13.9696 73.4868 13.7349C73.1668 13.5002 72.7615 13.3829 72.2708 13.3829C71.8441 13.3829 71.4708 13.4896 71.1508 13.7029C70.8308 13.9056 70.5855 14.2096 70.4148 14.6149C70.2548 15.0202 70.1748 15.5216 70.1748 16.1189C70.1748 17.0576 70.3721 17.7776 70.7668 18.2789C71.1721 18.7802 71.7215 19.0309 72.4148 19.0309ZM78.3416 20.3589V16.1669V11.9909H80.0376L80.0056 14.8709H80.2936C80.3896 14.1882 80.5389 13.6229 80.7416 13.1749C80.9442 12.7162 81.2269 12.3749 81.5896 12.1509C81.9522 11.9162 82.4002 11.7989 82.9336 11.7989C83.0402 11.7989 83.1522 11.8042 83.2696 11.8149C83.3976 11.8256 83.5362 11.8522 83.6856 11.8949L83.6056 14.0229C83.4349 13.9589 83.2589 13.9162 83.0776 13.8949C82.9069 13.8629 82.7469 13.8469 82.5976 13.8469C82.1816 13.8469 81.8189 13.9536 81.5096 14.1669C81.2109 14.3802 80.9656 14.6842 80.7736 15.0789C80.5922 15.4629 80.4536 15.9216 80.3576 16.4549V20.3589H78.3416ZM89.0161 20.3589V9.79889H93.2241C93.8534 9.79889 94.4187 9.85222 94.9201 9.95889C95.4214 10.0656 95.8481 10.2362 96.2001 10.4709C96.5627 10.6949 96.8401 10.9829 97.0321 11.3349C97.2241 11.6869 97.3201 12.1082 97.3201 12.5989C97.3201 13.0149 97.2347 13.3776 97.0641 13.6869C96.9041 13.9856 96.6427 14.2362 96.2801 14.4389C95.9174 14.6309 95.4427 14.7642 94.8561 14.8389V15.0789C95.8587 15.1536 96.5894 15.4096 97.0481 15.8469C97.5174 16.2736 97.7521 16.8496 97.7521 17.5749C97.7521 18.1829 97.5974 18.6949 97.2881 19.1109C96.9894 19.5162 96.5307 19.8256 95.9121 20.0389C95.3041 20.2522 94.5361 20.3589 93.6081 20.3589H89.0161ZM90.9361 18.7109H93.6401C94.3654 18.7109 94.8987 18.5989 95.2401 18.3749C95.5921 18.1402 95.7681 17.7829 95.7681 17.3029C95.7681 16.7482 95.5387 16.3322 95.0801 16.0549C94.6321 15.7776 93.9441 15.6389 93.0161 15.6389H90.9361V18.7109ZM90.9361 14.3269H92.6961C93.5921 14.3269 94.2534 14.2042 94.6801 13.9589C95.1174 13.7136 95.3361 13.3402 95.3361 12.8389C95.3361 12.3589 95.1441 12.0069 94.7601 11.7829C94.3867 11.5482 93.8107 11.4309 93.0321 11.4309H90.9361V14.3269ZM103.461 20.5669C102.789 20.5669 102.187 20.4709 101.653 20.2789C101.131 20.0869 100.688 19.8096 100.325 19.4469C99.9626 19.0736 99.6853 18.6256 99.4933 18.1029C99.3013 17.5802 99.2053 16.9882 99.2053 16.3269C99.2053 15.6656 99.296 15.0576 99.4773 14.5029C99.6693 13.9482 99.9413 13.4682 100.293 13.0629C100.645 12.6576 101.072 12.3429 101.573 12.1189C102.085 11.8949 102.667 11.7829 103.317 11.7829C103.925 11.7829 104.469 11.8842 104.949 12.0869C105.429 12.2896 105.835 12.5936 106.165 12.9989C106.496 13.3936 106.741 13.8896 106.901 14.4869C107.061 15.0736 107.115 15.7562 107.061 16.5349L100.517 16.5829V15.4149L105.893 15.3669L105.189 16.0229C105.253 15.4149 105.205 14.9189 105.045 14.5349C104.885 14.1402 104.656 13.8522 104.357 13.6709C104.059 13.4789 103.717 13.3829 103.333 13.3829C102.896 13.3829 102.512 13.5002 102.181 13.7349C101.851 13.9589 101.595 14.2896 101.413 14.7269C101.243 15.1536 101.157 15.6762 101.157 16.2949C101.157 17.2229 101.36 17.9162 101.765 18.3749C102.181 18.8336 102.747 19.0629 103.461 19.0629C103.781 19.0629 104.048 19.0256 104.261 18.9509C104.485 18.8656 104.672 18.7589 104.821 18.6309C104.971 18.4922 105.088 18.3376 105.173 18.1669C105.269 17.9962 105.344 17.8149 105.397 17.6229L107.157 18.0229C107.072 18.4176 106.933 18.7696 106.741 19.0789C106.549 19.3882 106.299 19.6549 105.989 19.8789C105.691 20.1029 105.333 20.2736 104.917 20.3909C104.501 20.5082 104.016 20.5669 103.461 20.5669ZM108.904 20.3589V15.2549V11.9909H110.584L110.536 14.5509H110.824C110.973 13.9216 111.171 13.4042 111.416 12.9989C111.672 12.5936 111.997 12.2896 112.392 12.0869C112.787 11.8842 113.245 11.7829 113.768 11.7829C114.717 11.7829 115.437 12.1189 115.928 12.7909C116.429 13.4629 116.68 14.5029 116.68 15.9109V20.3589H114.648V16.1189C114.648 15.2122 114.509 14.5509 114.232 14.1349C113.965 13.7082 113.565 13.4949 113.032 13.4949C112.584 13.4949 112.205 13.6389 111.896 13.9269C111.587 14.2042 111.347 14.5776 111.176 15.0469C111.016 15.5056 110.931 16.0122 110.92 16.5669V20.3589H108.904ZM120.746 20.5669C120.288 20.5669 119.877 20.4816 119.514 20.3109C119.152 20.1296 118.864 19.8629 118.65 19.5109C118.448 19.1589 118.346 18.7216 118.346 18.1989C118.346 17.7616 118.426 17.3882 118.586 17.0789C118.757 16.7696 119.008 16.5189 119.338 16.3269C119.669 16.1242 120.08 15.9589 120.57 15.8309C121.061 15.6922 121.637 15.5749 122.298 15.4789C122.661 15.4256 122.954 15.3722 123.178 15.3189C123.413 15.2656 123.584 15.1856 123.69 15.0789C123.797 14.9616 123.85 14.7909 123.85 14.5669C123.85 14.2362 123.733 13.9536 123.498 13.7189C123.274 13.4736 122.906 13.3509 122.394 13.3509C122.085 13.3509 121.786 13.4042 121.498 13.5109C121.221 13.6176 120.981 13.7882 120.778 14.0229C120.576 14.2469 120.437 14.5456 120.362 14.9189L118.554 14.3589C118.672 13.9322 118.842 13.5642 119.066 13.2549C119.29 12.9349 119.568 12.6629 119.898 12.4389C120.229 12.2149 120.608 12.0496 121.034 11.9429C121.461 11.8362 121.93 11.7829 122.442 11.7829C123.221 11.7829 123.861 11.9109 124.362 12.1669C124.864 12.4122 125.237 12.8016 125.482 13.3349C125.728 13.8576 125.85 14.5349 125.85 15.3669V16.9349C125.85 17.2976 125.856 17.6762 125.866 18.0709C125.888 18.4549 125.909 18.8442 125.93 19.2389C125.962 19.6229 126 19.9962 126.042 20.3589H124.234C124.192 20.0602 124.154 19.7402 124.122 19.3989C124.09 19.0576 124.064 18.7109 124.042 18.3589H123.786C123.637 18.7642 123.424 19.1376 123.146 19.4789C122.869 19.8096 122.528 20.0762 122.122 20.2789C121.728 20.4709 121.269 20.5669 120.746 20.5669ZM121.546 19.0789C121.76 19.0789 121.973 19.0416 122.186 18.9669C122.41 18.8922 122.629 18.7802 122.842 18.6309C123.056 18.4816 123.253 18.3002 123.434 18.0869C123.616 17.8629 123.77 17.6016 123.898 17.3029L123.866 15.8789L124.25 15.9429C124.069 16.0922 123.845 16.2096 123.578 16.2949C123.312 16.3802 123.029 16.4442 122.73 16.4869C122.442 16.5296 122.149 16.5829 121.85 16.6469C121.562 16.7002 121.301 16.7749 121.066 16.8709C120.832 16.9562 120.645 17.0842 120.506 17.2549C120.368 17.4149 120.298 17.6389 120.298 17.9269C120.298 18.2896 120.416 18.5722 120.65 18.7749C120.885 18.9776 121.184 19.0789 121.546 19.0789ZM127.469 20.3589V18.6309L131.917 13.8629V13.6389H127.533V11.9909H134.509V13.6869L129.997 18.4869V18.6949H134.541V20.3589H127.469ZM135.844 20.3589V18.6309L140.292 13.8629V13.6389H135.908V11.9909H142.884V13.6869L138.372 18.4869V18.6949H142.916V20.3589H135.844ZM144.607 20.3589V11.9909H146.623V20.3589H144.607ZM145.615 10.6789C145.21 10.6789 144.895 10.5936 144.671 10.4229C144.458 10.2416 144.351 9.98555 144.351 9.65489C144.351 9.32422 144.458 9.07355 144.671 8.90289C144.895 8.72155 145.21 8.63089 145.615 8.63089C146.042 8.63089 146.362 8.71622 146.575 8.88689C146.789 9.05755 146.895 9.31355 146.895 9.65489C146.895 9.98555 146.783 10.2416 146.559 10.4229C146.346 10.5936 146.031 10.6789 145.615 10.6789Z" fill="white"/>
</svg>
